<svg width="20" height="20" viewBox="0 0 20 20" fill="none" xmlns="http://www.w3.org/2000/svg">
<path d="M8.94 4.08C9.29077 4.02624 9.64514 3.99949 10 4C13.18 4 16.17 6.29 17.91 10C17.6439 10.5646 17.3433 11.1123 17.01 11.64C16.9042 11.8038 16.8486 11.995 16.85 12.19C16.8522 12.4082 16.9258 12.6198 17.0595 12.7923C17.1931 12.9648 17.3796 13.0889 17.5903 13.1455C17.8011 13.2022 18.0246 13.1883 18.2268 13.1061C18.4289 13.0238 18.5986 12.8777 18.71 12.69C19.1759 11.9579 19.5806 11.1887 19.92 10.39C19.9737 10.2652 20.0013 10.1308 20.0013 9.995C20.0013 9.85918 19.9737 9.72478 19.92 9.6C17.9 4.91 14.1 2 10 2C9.53067 1.99764 9.06209 2.0378 8.6 2.12C8.46868 2.14233 8.34304 2.1903 8.23026 2.26118C8.11748 2.33206 8.01976 2.42446 7.94269 2.5331C7.86561 2.64175 7.8107 2.76451 7.78107 2.89438C7.75144 3.02425 7.74768 3.15868 7.77 3.29C7.79233 3.42132 7.8403 3.54696 7.91118 3.65975C7.98206 3.77253 8.07446 3.87024 8.1831 3.94732C8.29175 4.02439 8.41451 4.07931 8.54438 4.10894C8.67425 4.13857 8.80868 4.14233 8.94 4.12V4.08ZM1.71 0.290002C1.61676 0.196764 1.50607 0.122803 1.38425 0.0723425C1.26243 0.0218822 1.13186 -0.00408936 1 -0.00408936C0.868143 -0.00408936 0.737575 0.0218822 0.615753 0.0723425C0.493931 0.122803 0.383241 0.196764 0.290002 0.290002C0.101699 0.478306 -0.00408936 0.733701 -0.00408936 1C-0.00408936 1.2663 0.101699 1.5217 0.290002 1.71L3.39 4.8C1.97558 6.16153 0.849859 7.79399 0.0800022 9.6C0.0249389 9.72617 -0.00348258 9.86234 -0.00348258 10C-0.00348258 10.1377 0.0249389 10.2738 0.0800022 10.4C2.1 15.09 5.9 18 10 18C11.7971 17.9876 13.5518 17.4525 15.05 16.46L18.29 19.71C18.383 19.8037 18.4936 19.8781 18.6154 19.9289C18.7373 19.9797 18.868 20.0058 19 20.0058C19.132 20.0058 19.2627 19.9797 19.3846 19.9289C19.5064 19.8781 19.617 19.8037 19.71 19.71C19.8037 19.617 19.8781 19.5064 19.9289 19.3846C19.9797 19.2627 20.0058 19.132 20.0058 19C20.0058 18.868 19.9797 18.7373 19.9289 18.6154C19.8781 18.4936 19.8037 18.383 19.71 18.29L1.71 0.290002ZM8.07 9.48L10.52 11.93C10.351 11.9785 10.1758 12.002 10 12C9.46957 12 8.96086 11.7893 8.58579 11.4142C8.21072 11.0391 8 10.5304 8 10C7.99795 9.82419 8.02154 9.64901 8.07 9.48ZM10 16C6.82 16 3.83 13.71 2.1 10C2.74609 8.57375 3.66307 7.28658 4.8 6.21L6.57 8C6.15425 8.7588 5.99574 9.63195 6.11826 10.4885C6.24078 11.345 6.63772 12.1387 7.24953 12.7505C7.86134 13.3623 8.65503 13.7592 9.51155 13.8817C10.3681 14.0043 11.2412 13.8458 12 13.43L13.59 15C12.5011 15.6409 11.2634 15.9856 10 16Z" fill="#54634B"/>
</svg>
